<svg xmlns="http://www.w3.org/2000/svg" width="579.0" height="308.0" viewBox="0 0 579.0 308.0" fill="none"><g transform="translate(0,13.0)"><g transform="translate(40.0,0) scale(1.0)"><g transform="translate(11.000,0)"><path d="M 34 42.0 V 168 A 32 32 0 0 0 66 200.0 M 4 90.0 H 68" fill="none" stroke="#0F141C" stroke-width="30.0" stroke-linecap="round" stroke-linejoin="round"/></g><g transform="translate(112.000,0)"><path d="M 0 90.0 V 157.0 A 43.0 43.0 0 0 0 86.0 157.0 V 90.0" fill="none" stroke="#0F141C" stroke-width="30.0" stroke-linecap="round" stroke-linejoin="round"/></g><g transform="translate(237.000,0)"><path d="M 0 90.0 L 78.0 200.0 M 78.0 90.0 L 0 200.0" fill="none" stroke="#FFB020" stroke-width="30.0" stroke-linecap="round" stroke-linejoin="round"/></g><g transform="translate(361.000,0)"><path d="M 0 42.0 V 200.0" fill="none" stroke="#0F141C" stroke-width="30.0" stroke-linecap="round" stroke-linejoin="round"/></g><g transform="translate(400.000,0)"><path d="M 0 90.0 L 44.0 192.0 M 84.0 90.0 L 25.18 240.0" fill="none" stroke="#0F141C" stroke-width="30.0" stroke-linecap="round" stroke-linejoin="round"/></g></g></g></svg>